<?xml version="1.0" encoding="utf-8"?>
<!-- Generator: Adobe Illustrator 25.2.1, SVG Export Plug-In . SVG Version: 6.00 Build 0)  -->
<svg version="1.1" id="Layer_1" xmlns="http://www.w3.org/2000/svg" xmlns:xlink="http://www.w3.org/1999/xlink" x="0px" y="0px"
	 viewBox="0 0 500 500" style="enable-background:new 0 0 500 500;" xml:space="preserve">
<style type="text/css">
	.st0{fill:#1D283A;}
</style>
<g>
	<polygon class="st0" points="-916.4,340.2 -596.4,340.2 -596.4,453.8 -524.3,453.8 -524.3,268.1 -988.5,268.1 -988.5,453.8 
		-916.4,453.8 	"/>
	<polygon class="st0" points="-667,118.3 -596.4,118.3 -596.4,231.9 -524.3,231.9 -524.3,46.2 -739,46.2 -739,231.9 -667,231.9 	"/>
	<polyline class="st0" points="-739,376.3 -739,453.8 -667,453.8 -667,376.3 	"/>
</g>
<g>
	<rect x="1094.8" y="1694.8" class="st0" width="72.1" height="77.5"/>
	<polygon class="st0" points="1028.3,1658.6 1028.3,1547.7 1139.3,1547.7 1139.3,1547.7 1166.8,1547.7 1166.8,1436.8 1237.4,1436.8 
		1237.4,1547.7 1309.5,1547.7 1309.5,1364.7 1094.8,1364.7 1094.8,1475.7 1028.3,1475.7 1028.4,1436.8 1028.4,1364.7 956.3,1364.7 
		956.3,1475.6 845.3,1475.6 845.4,1547.7 956.3,1547.7 956.3,1658.6 	"/>
	<rect x="845.3" y="1586.6" class="st0" width="72.1" height="185.7"/>
	<polygon class="st0" points="1252.9,1586.6 1237.4,1586.6 1067.2,1586.6 1067.2,1658.6 1237.4,1658.6 1237.4,1772.3 1309.5,1772.3 
		1309.5,1586.6 	"/>
</g>
<g>
	<rect x="-1028.2" y="-392.2" class="st0" width="72.1" height="157.6"/>
	<rect x="-885.5" y="-392.2" class="st0" width="72" height="157.6"/>
	<path class="st0" d="M-956-534.8h17.6v35.3h-89.7v72.1h214.7v-72.1h-89.7v-35.3h17.6v-35.4h71.8v-72h-464.6v121.5v286.1h72.7
		v-192.8h70.4v192.8h72v-335.6H-956V-534.8z M-1135.4-499.5h-70.6v-70.6h70.6V-499.5z"/>
</g>
<g>
	<polygon class="st0" points="214.7,322.2 285.3,322.2 285.3,435.8 357.4,435.8 357.4,250.2 142.6,250.2 142.6,435.8 214.7,435.8 	
		"/>
	<polygon class="st0" points="72.1,136.2 155.3,136.2 155.3,204.9 227.4,204.9 227.4,64.1 0,64.1 0,435.9 72.1,435.9 	"/>
	<polygon class="st0" points="344.7,136.2 427.9,136.2 427.9,435.9 500,435.9 500,64.1 272.6,64.1 272.6,204.9 344.7,204.9 	"/>
</g>
</svg>
