<?xml version="1.0" encoding="utf-8"?>
<!-- Generator: Adobe Illustrator 25.2.1, SVG Export Plug-In . SVG Version: 6.00 Build 0)  -->
<svg version="1.1" id="Layer_1" xmlns="http://www.w3.org/2000/svg" xmlns:xlink="http://www.w3.org/1999/xlink" x="0px" y="0px"
	 viewBox="0 0 500 500" style="enable-background:new 0 0 500 500;" xml:space="preserve">
<style type="text/css">
	.st0{fill:#1D283A;}
</style>
<g>
	<polygon class="st0" points="90,340.2 410,340.2 410,453.8 482.1,453.8 482.1,268.1 17.9,268.1 17.9,453.8 90,453.8 	"/>
	<polygon class="st0" points="339.4,118.3 410,118.3 410,231.9 482.1,231.9 482.1,46.2 267.4,46.2 267.4,231.9 339.4,231.9 	"/>
	<polyline class="st0" points="267.4,376.3 267.4,453.8 339.4,453.8 339.4,376.3 	"/>
</g>
<g>
	<rect x="1094.8" y="1694.8" class="st0" width="72.1" height="77.5"/>
	<polygon class="st0" points="1028.3,1658.6 1028.3,1547.7 1139.3,1547.7 1139.3,1547.7 1166.8,1547.7 1166.8,1436.8 1237.4,1436.8 
		1237.4,1547.7 1309.5,1547.7 1309.5,1364.7 1094.8,1364.7 1094.8,1475.7 1028.3,1475.7 1028.4,1436.8 1028.4,1364.7 956.3,1364.7 
		956.3,1475.6 845.3,1475.6 845.4,1547.7 956.3,1547.7 956.3,1658.6 	"/>
	<rect x="845.3" y="1586.6" class="st0" width="72.1" height="185.7"/>
	<polygon class="st0" points="1252.9,1586.6 1237.4,1586.6 1067.2,1586.6 1067.2,1658.6 1237.4,1658.6 1237.4,1772.3 1309.5,1772.3 
		1309.5,1586.6 	"/>
</g>
<g>
	<rect x="1095.6" y="-130.8" class="st0" width="72.1" height="157.6"/>
	<rect x="1238.4" y="-130.8" class="st0" width="72" height="157.6"/>
	<path class="st0" d="M1167.8-273.4h17.6v35.3h-89.7v72.1h214.7v-72.1h-89.7v-35.3h17.6v-35.4h71.8v-72H845.3v121.5V26.9h72.7V-166
		h70.4V26.9h72v-335.6h107.4V-273.4z M988.4-238.1h-70.6v-70.6h70.6V-238.1z"/>
</g>
<g>
	<polygon class="st0" points="1060,837.2 1130.6,837.2 1130.6,950.9 1202.7,950.9 1202.7,765.2 988,765.2 988,950.9 1060,950.9 	"/>
	<polygon class="st0" points="917.4,651.2 1000.6,651.2 1000.6,719.9 1072.7,719.9 1072.7,579.2 845.3,579.2 845.3,950.9 
		917.4,950.9 	"/>
	<polygon class="st0" points="1190,651.2 1273.3,651.2 1273.3,950.9 1345.3,950.9 1345.3,579.2 1118,579.2 1118,719.9 1190,719.9 	
		"/>
</g>
</svg>
