<?xml version="1.0" encoding="utf-8"?>
<!-- Generator: Adobe Illustrator 25.2.1, SVG Export Plug-In . SVG Version: 6.00 Build 0)  -->
<svg version="1.1" id="Layer_1" xmlns="http://www.w3.org/2000/svg" xmlns:xlink="http://www.w3.org/1999/xlink" x="0px" y="0px"
	 viewBox="0 0 500 500" style="enable-background:new 0 0 500 500;" xml:space="preserve">
<style type="text/css">
	.st0{fill:#1D283A;}
</style>
<g>
	<polygon class="st0" points="-916.4,340.2 -596.4,340.2 -596.4,453.8 -524.3,453.8 -524.3,268.1 -988.5,268.1 -988.5,453.8 
		-916.4,453.8 	"/>
	<polygon class="st0" points="-667,118.3 -596.4,118.3 -596.4,231.9 -524.3,231.9 -524.3,46.2 -739,46.2 -739,231.9 -667,231.9 	"/>
	<polyline class="st0" points="-739,376.3 -739,453.8 -667,453.8 -667,376.3 	"/>
</g>
<g>
	<rect x="267.4" y="376.3" class="st0" width="72.1" height="77.5"/>
	<polygon class="st0" points="200.9,340.2 200.9,229.2 311.9,229.2 311.9,229.2 339.4,229.2 339.4,118.3 410,118.3 410,229.2 
		482.1,229.2 482.1,46.2 267.4,46.2 267.4,157.2 200.9,157.2 201,118.3 201,46.2 128.9,46.2 128.9,157.2 17.9,157.2 18,229.2 
		128.9,229.2 128.9,340.2 	"/>
	<rect x="17.9" y="268.1" class="st0" width="72.1" height="185.7"/>
	<polygon class="st0" points="425.5,268.1 410,268.1 239.8,268.1 239.8,340.2 410,340.2 410,453.8 482.1,453.8 482.1,268.1 	"/>
</g>
<g>
	<rect x="-1028.2" y="-392.2" class="st0" width="72.1" height="157.6"/>
	<rect x="-885.5" y="-392.2" class="st0" width="72" height="157.6"/>
	<path class="st0" d="M-956-534.8h17.6v35.3h-89.7v72.1h214.7v-72.1h-89.7v-35.3h17.6v-35.4h71.8v-72h-464.6v121.5v286.1h72.7
		v-192.8h70.4v192.8h72v-335.6H-956V-534.8z M-1135.4-499.5h-70.6v-70.6h70.6V-499.5z"/>
</g>
<g>
	<polygon class="st0" points="-991.4,948.9 -920.8,948.9 -920.8,1062.5 -848.8,1062.5 -848.8,876.8 -1063.5,876.8 -1063.5,1062.5 
		-991.4,1062.5 	"/>
	<polygon class="st0" points="-1134,762.8 -1050.8,762.8 -1050.8,831.5 -978.7,831.5 -978.7,690.8 -1206.1,690.8 -1206.1,1062.5 
		-1134,1062.5 	"/>
	<polygon class="st0" points="-861.4,762.8 -778.2,762.8 -778.2,1062.5 -706.1,1062.5 -706.1,690.8 -933.5,690.8 -933.5,831.5 
		-861.4,831.5 	"/>
</g>
</svg>
