<?xml version="1.0" encoding="utf-8"?>
<!-- Generator: Adobe Illustrator 25.2.1, SVG Export Plug-In . SVG Version: 6.00 Build 0)  -->
<svg version="1.1" id="Layer_1" xmlns="http://www.w3.org/2000/svg" xmlns:xlink="http://www.w3.org/1999/xlink" x="0px" y="0px"
	 viewBox="0 0 500 500" style="enable-background:new 0 0 500 500;" xml:space="preserve">
<style type="text/css">
	.st0{fill:#1D283A;}
</style>
<g>
	<polygon class="st0" points="-916.4,340.2 -596.4,340.2 -596.4,453.8 -524.3,453.8 -524.3,268.1 -988.5,268.1 -988.5,453.8 
		-916.4,453.8 	"/>
	<polygon class="st0" points="-667,118.3 -596.4,118.3 -596.4,231.9 -524.3,231.9 -524.3,46.2 -739,46.2 -739,231.9 -667,231.9 	"/>
	<polyline class="st0" points="-739,376.3 -739,453.8 -667,453.8 -667,376.3 	"/>
</g>
<g>
	<rect x="1094.8" y="1694.8" class="st0" width="72.1" height="77.5"/>
	<polygon class="st0" points="1028.3,1658.6 1028.3,1547.7 1139.3,1547.7 1139.3,1547.7 1166.8,1547.7 1166.8,1436.8 1237.4,1436.8 
		1237.4,1547.7 1309.5,1547.7 1309.5,1364.7 1094.8,1364.7 1094.8,1475.7 1028.3,1475.7 1028.4,1436.8 1028.4,1364.7 956.3,1364.7 
		956.3,1475.6 845.3,1475.6 845.4,1547.7 956.3,1547.7 956.3,1658.6 	"/>
	<rect x="845.3" y="1586.6" class="st0" width="72.1" height="185.7"/>
	<polygon class="st0" points="1252.9,1586.6 1237.4,1586.6 1067.2,1586.6 1067.2,1658.6 1237.4,1658.6 1237.4,1772.3 1309.5,1772.3 
		1309.5,1586.6 	"/>
</g>
<g>
	<rect x="267.8" y="296.2" class="st0" width="72.1" height="157.6"/>
	<rect x="410.5" y="296.2" class="st0" width="72" height="157.6"/>
	<path class="st0" d="M340,153.6h17.6v35.3h-89.7V261h214.7v-72.1h-89.7v-35.3h17.6v-35.4h71.8v-72H17.5v121.5v286.1h72.7V261h70.4
		v192.8h72V118.2H340V153.6z M160.6,188.9H90v-70.6h70.6V188.9z"/>
</g>
<g>
	<polygon class="st0" points="1060,837.2 1130.6,837.2 1130.6,950.9 1202.7,950.9 1202.7,765.2 988,765.2 988,950.9 1060,950.9 	"/>
	<polygon class="st0" points="917.4,651.2 1000.6,651.2 1000.6,719.9 1072.7,719.9 1072.7,579.2 845.3,579.2 845.3,950.9 
		917.4,950.9 	"/>
	<polygon class="st0" points="1190,651.2 1273.3,651.2 1273.3,950.9 1345.3,950.9 1345.3,579.2 1118,579.2 1118,719.9 1190,719.9 	
		"/>
</g>
</svg>
